<svg width="39" height="44" viewBox="0 0 39 44" fill="none" xmlns="http://www.w3.org/2000/svg">
<path d="M17.3674 16.0454C17.3674 13.9901 19.0336 12.3239 21.089 12.3239V34.1571H17.3674V16.0454Z" fill="#B4006E"/>
<path fill-rule="evenodd" clip-rule="evenodd" d="M9.42801 43.3371C14.635 43.3371 21.089 39.382 21.089 34.1751C21.089 28.9681 14.635 24.4811 9.42801 24.4811V43.3371Z" fill="#4E3FE4"/>
<path d="M0 33.9091C0 39.116 4.22106 43.3371 9.42801 43.3371V24.4811C4.22106 24.4811 0 28.7021 0 33.9091Z" fill="#B4006E"/>
<path fill-rule="evenodd" clip-rule="evenodd" d="M9.42801 43.3193C14.635 43.3193 21.089 39.3643 21.089 34.1573C21.089 28.9504 14.635 24.4633 9.42801 24.4633V43.3193Z" fill="#EC3066"/>
<path d="M19.156 7.07878C17.3713 9.43606 17.251 12.6792 17.4261 15.3947C17.5407 17.1706 19.0351 18.195 20.6874 17.5341C21.9279 17.0379 24.9864 16.0106 28.708 14.8941C33.1939 13.5484 37.6128 11.9169 38.012 7.3269C38.5082 1.62048 36.5233 -0.736519 29.3282 1.49642C22.1332 3.72936 21.8258 3.55229 19.156 7.07878Z" fill="#EC3066"/>
</svg>
