<svg stroke="none" width="21" height="23" viewBox="0 0 21 23" fill="none" xmlns="http://www.w3.org/2000/svg">
<path d="M13.875 18.8125V4.1875C13.875 3.66476 13.875 3.40344 13.9182 3.1861C14.0958 2.29354 14.793 1.59577 15.6855 1.41823C15.9029 1.375 16.1648 1.375 16.6875 1.375C17.2102 1.375 17.4716 1.375 17.689 1.41823C18.5815 1.59577 19.2796 2.29354 19.4572 3.1861C19.5 3.40153 19.5 3.66016 19.5 4.17374V4.1875V18.8125V18.8263C19.5 19.3398 19.5 19.5985 19.4572 19.814C19.2796 20.7065 18.5815 21.4042 17.689 21.5817C17.4716 21.625 17.2097 21.625 16.687 21.625C16.1643 21.625 15.9029 21.625 15.6855 21.5817C14.793 21.4042 14.0958 20.7065 13.9182 19.814C13.875 19.5966 13.875 19.3352 13.875 18.8125Z"/>
<path d="M1.5 18.8125V4.1875C1.5 3.66476 1.5 3.40344 1.54323 3.1861C1.72077 2.29354 2.41799 1.59577 3.31055 1.41823C3.52789 1.375 3.78976 1.375 4.3125 1.375C4.83524 1.375 5.0966 1.375 5.31395 1.41823C6.20651 1.59577 6.90461 2.29354 7.08215 3.1861C7.12501 3.40153 7.125 3.66016 7.125 4.17374V4.1875V18.8125V18.8263C7.125 19.3398 7.12501 19.5985 7.08215 19.814C6.90461 20.7065 6.20651 21.4042 5.31395 21.5817C5.09661 21.625 4.83473 21.625 4.312 21.625C3.78927 21.625 3.52789 21.625 3.31055 21.5817C2.41799 21.4042 1.72077 20.7065 1.54323 19.814C1.5 19.5966 1.5 19.3352 1.5 18.8125Z"/>
<path d="M19.5 4.1875V18.8125M19.5 4.1875V4.17374M19.5 4.1875C19.5 4.18289 19.5 4.1783 19.5 4.17374M19.5 18.8125V18.8263M19.5 18.8125C19.5 18.8171 19.5 18.8217 19.5 18.8263M7.125 4.1875V18.8125M7.125 4.1875V4.17374M7.125 4.1875C7.125 4.18289 7.125 4.1783 7.125 4.17374M7.125 18.8125V18.8263M7.125 18.8125C7.125 18.8171 7.125 18.8217 7.125 18.8263M19.5 4.17374C19.5 3.66016 19.5 3.40153 19.4572 3.1861C19.2796 2.29354 18.5815 1.59577 17.689 1.41823C17.4716 1.375 17.2102 1.375 16.6875 1.375C16.1648 1.375 15.9029 1.375 15.6855 1.41823C14.793 1.59577 14.0958 2.29354 13.9182 3.1861C13.875 3.40344 13.875 3.66476 13.875 4.1875V18.8125C13.875 19.3352 13.875 19.5966 13.9182 19.814C14.0958 20.7065 14.793 21.4042 15.6855 21.5817C15.9029 21.625 16.1643 21.625 16.687 21.625C17.2097 21.625 17.4716 21.625 17.689 21.5817C18.5815 21.4042 19.2796 20.7065 19.4572 19.814C19.5 19.5985 19.5 19.3398 19.5 18.8263M7.125 4.17374C7.125 3.66016 7.12501 3.40153 7.08215 3.1861C6.90461 2.29354 6.20651 1.59577 5.31395 1.41823C5.0966 1.375 4.83524 1.375 4.3125 1.375C3.78976 1.375 3.52789 1.375 3.31055 1.41823C2.41799 1.59577 1.72077 2.29354 1.54323 3.1861C1.5 3.40344 1.5 3.66476 1.5 4.1875V18.8125C1.5 19.3352 1.5 19.5966 1.54323 19.814C1.72077 20.7065 2.41799 21.4042 3.31055 21.5817C3.52789 21.625 3.78927 21.625 4.312 21.625C4.83473 21.625 5.09661 21.625 5.31395 21.5817C6.20651 21.4042 6.90461 20.7065 7.08215 19.814C7.12501 19.5985 7.125 19.3398 7.125 18.8263" stroke-width="2" stroke-linecap="round" stroke-linejoin="round"/>
</svg>
