<svg width="19" height="23" viewBox="0 0 19 23" fill="none" xmlns="http://www.w3.org/2000/svg">
<path d="M17.2499 9.41666V13.5836V13.5989C17.2499 16.2532 17.2499 17.5817 16.6916 18.3479C16.2038 19.0175 15.4545 19.4481 14.6303 19.5321C13.6853 19.6284 12.5345 18.9571 10.233 17.6146L6.66134 15.5311C4.39055 14.2065 3.25524 13.5442 2.87309 12.6817C2.5397 11.9293 2.5397 11.071 2.87309 10.3186C3.25524 9.45607 4.39054 8.79372 6.66134 7.46909L10.233 5.38559C12.5345 4.04306 13.6853 3.37183 14.6303 3.46816C15.4544 3.55217 16.2038 3.98278 16.6916 4.65233C17.2499 5.41856 17.2499 6.74714 17.2499 9.40144V9.41666Z"/>
<path d="M2.20825 1.29169C2.20825 0.739402 1.76054 0.291687 1.20825 0.291687C0.655967 0.291687 0.208252 0.739402 0.208252 1.29169L2.20825 1.29169ZM0.208253 21.7084C0.208253 22.2606 0.655968 22.7084 1.20825 22.7084C1.76054 22.7084 2.20825 22.2606 2.20825 21.7084H0.208253ZM10.233 17.6146L10.7369 16.7508V16.7508L10.233 17.6146ZM6.66134 15.5311L6.15746 16.3949L6.66134 15.5311ZM6.66134 7.46909L7.16521 8.33287L6.66134 7.46909ZM10.233 5.38559L9.72917 4.52182L10.233 5.38559ZM2.87309 12.6817L1.95882 13.0868L2.87309 12.6817ZM2.87309 10.3186L1.95882 9.91346L2.87309 10.3186ZM16.6916 18.3479L17.4999 18.9368L16.6916 18.3479ZM14.6303 19.5321L14.7317 20.5269L14.6303 19.5321ZM16.6916 4.65233L17.4999 4.06346L16.6916 4.65233ZM14.6303 3.46816L14.7317 2.47332L14.6303 3.46816ZM17.2499 13.5989H18.2499H17.2499ZM17.2499 9.40144H16.2499H17.2499ZM0.208252 1.29169L0.208253 21.7084H2.20825L2.20825 1.29169L0.208252 1.29169ZM16.2499 9.41666V13.5836H18.2499V9.41666H16.2499ZM10.7369 16.7508L7.16521 14.6673L6.15746 16.3949L9.72917 18.4784L10.7369 16.7508ZM7.16521 8.33287L10.7369 6.24937L9.72917 4.52182L6.15746 6.60531L7.16521 8.33287ZM7.16521 14.6673C6.01281 13.9951 5.20888 13.525 4.63964 13.119C4.06667 12.7103 3.8676 12.4577 3.78736 12.2766L1.95882 13.0868C2.26073 13.7682 2.82039 14.278 3.4783 14.7472C4.13996 15.2191 5.03908 15.7425 6.15746 16.3949L7.16521 14.6673ZM6.15746 6.60531C5.03906 7.25771 4.13995 7.78106 3.47828 8.253C2.82036 8.72228 2.26072 9.23208 1.95882 9.91346L3.78736 10.7237C3.86761 10.5426 4.06669 10.2899 4.63966 9.88125C5.20889 9.47524 6.01282 9.0051 7.16521 8.33287L6.15746 6.60531ZM3.78736 12.2766C3.56828 11.7822 3.56828 11.2181 3.78736 10.7237L1.95882 9.91346C1.51113 10.9238 1.51113 12.0764 1.95882 13.0868L3.78736 12.2766ZM9.72917 18.4784C10.8629 19.1397 11.7726 19.6715 12.5175 20.0191C13.2575 20.3644 13.9842 20.6031 14.7317 20.5269L14.5289 18.5373C14.3314 18.5574 14.0103 18.5087 13.3632 18.2067C12.7212 17.9071 11.9047 17.432 10.7369 16.7508L9.72917 18.4784ZM15.8834 17.759C15.5627 18.1992 15.0703 18.4821 14.5289 18.5373L14.7317 20.5269C15.8386 20.4141 16.8449 19.8358 17.4999 18.9368L15.8834 17.759ZM10.7369 6.24937C11.9047 5.56817 12.7211 5.09309 13.3632 4.79352C14.0103 4.49161 14.3314 4.44287 14.5289 4.46301L14.7317 2.47332C13.9842 2.39712 13.2575 2.63584 12.5175 2.9811C11.7726 3.32869 10.8629 3.86048 9.72917 4.52182L10.7369 6.24937ZM17.4999 4.06346C16.8449 3.16446 15.8386 2.58615 14.7317 2.47332L14.5289 4.46301C15.0703 4.5182 15.5628 4.80109 15.8834 5.2412L17.4999 4.06346ZM16.2499 13.5836V13.5989H18.2499V13.5836H16.2499ZM16.2499 13.5989C16.2499 14.9458 16.2489 15.8869 16.1843 16.5899C16.1192 17.2984 15.9999 17.5992 15.8834 17.759L17.4999 18.9368C17.9417 18.3304 18.1015 17.5838 18.1759 16.7729C18.2509 15.9566 18.2499 14.9063 18.2499 13.5989L16.2499 13.5989ZM15.8834 5.2412C15.9999 5.40103 16.1192 5.70183 16.1843 6.41033C16.2489 7.11344 16.2499 8.05455 16.2499 9.40144L18.2499 9.40144C18.2499 8.09402 18.2509 7.0437 18.1759 6.22739C18.1015 5.41647 17.9417 4.66986 17.4999 4.06346L15.8834 5.2412ZM16.2499 9.40144V9.41666H18.2499V9.40144H16.2499ZM18.2499 9.41666C18.2499 9.41158 18.2499 9.40651 18.2499 9.40144L16.2499 9.40144C16.2499 9.40651 16.2499 9.41158 16.2499 9.41666H18.2499ZM16.2499 13.5836C16.2499 13.5887 16.2499 13.5938 16.2499 13.5989L18.2499 13.5989C18.2499 13.5938 18.2499 13.5887 18.2499 13.5836H16.2499Z"/>
</svg>
